# File created by Blade
# Date/Time:  Tue Jan 27 18:35:03 2015
# Frame Rate: 120.000 fps
#------------------------------------------------------
:FULLY-SPECIFIED
:DEGREES
2244
root -5.783672 31.789277 -0.671948 8.286506 1.079696 0.448509
Spine -5.143172 -10.690981 -5.079524
Head 0.210891 7.846566 14.539929
LeftShoulder -15.555952 16.427573 12.772486
LeftArm 21.188871 -27.114278 -80.190680
LeftForeArm 129.022379 -0.000000 131.125272
LeftHand 7.380728 -0.000000 3.292345
LeftHandThumb1 -26.253704 0.000000 33.147579
RightShoulder -14.599646 -8.499402 -9.033355
RightArm 1.243929 -31.844490 88.341683
RightForeArm -18.893020 -0.000000 26.564809
RightHand -14.337551 -0.000000 10.243773
RightHandThumb1 -24.326973 -0.000000 -32.862282
LeftUpLeg -3.284600 6.427991 -4.452481
LeftLeg 1.179639 -0.000000 -0.000000
LeftFoot -20.498397 24.164522 -17.941183
LeftToeBase 9.868158 -0.000000 -0.000000
RightUpLeg -7.683876 3.911781 -1.139090
RightLeg 5.307557 -0.000000 -0.000000
RightFoot -14.440630 -5.247539 5.321996
RightToeBase 2.237802 -0.000000 -0.000000
2245
root -5.788695 31.788739 -0.665052 8.264787 1.069427 0.444515
Spine -5.139569 -10.669054 -5.090586
Head 0.196753 7.871234 14.528902
LeftShoulder -15.558633 16.441595 12.786946
LeftArm 21.220704 -27.132272 -80.275262
LeftForeArm 128.986271 0.000000 131.136806
LeftHand 7.500775 -0.000000 3.431889
LeftHandThumb1 -26.253704 0.000000 33.147579
RightShoulder -14.591156 -8.476339 -9.044148
RightArm 1.209526 -31.835890 88.380737
RightForeArm -18.766926 0.000000 26.582075
RightHand -14.291048 -0.000000 10.219428
RightHandThumb1 -24.326973 -0.000000 -32.862282
LeftUpLeg -3.258862 6.429097 -4.436988
LeftLeg 1.199498 -0.000000 -0.000000
LeftFoot -20.526002 24.176191 -17.953100
LeftToeBase 9.888333 -0.000000 -0.000000
RightUpLeg -7.662571 3.928575 -1.127216
RightLeg 5.334659 -0.000000 -0.000000
RightFoot -14.459675 -5.234597 5.342495
RightToeBase 2.212696 -0.000000 -0.000000
2246
root -5.793756 31.788802 -0.658447 8.247905 1.058173 0.438504
Spine -5.151237 -10.620093 -5.107500
Head 0.208045 7.853650 14.535190
LeftShoulder -15.509523 16.452060 12.799428
LeftArm 21.172800 -27.111042 -80.245746
LeftForeArm 128.974924 -0.000000 131.179502
LeftHand 7.412608 0.000000 3.382106
LeftHandThumb1 -26.253704 0.000000 33.147579
RightShoulder -14.598186 -8.483309 -9.030254
RightArm 1.203132 -31.798921 88.398373
RightForeArm -18.676229 -0.000000 26.604361
RightHand -14.265776 -0.000000 10.294368
RightHandThumb1 -24.326973 -0.000000 -32.862282
LeftUpLeg -3.239751 6.441408 -4.420734
LeftLeg 1.224455 -0.000000 -0.000000
LeftFoot -20.552693 24.159401 -17.981223
LeftToeBase 9.925638 -0.000000 -0.000000
RightUpLeg -7.640645 3.942677 -1.109718
RightLeg 5.346835 -0.000000 -0.000000
RightFoot -14.473102 -5.240741 5.336189
RightToeBase 2.249007 -0.000000 -0.000000
2247
root -5.794840 31.788125 -0.653755 8.228496 1.015259 0.446216
Spine -5.132555 -10.586888 -5.109220
Head 0.142454 7.887468 14.468740
LeftShoulder -15.554618 16.425154 12.760035
LeftArm 21.160043 -27.089468 -80.213291
LeftForeArm 128.948690 -0.000000 131.197018
LeftHand 7.389324 -0.000000 3.375391
LeftHandThumb1 -26.253704 0.000000 33.147579
RightShoulder -14.595357 -8.447389 -9.051035
RightArm 1.201274 -31.755516 88.421689
RightForeArm -18.538085 -0.000000 26.635394
RightHand -14.230069 -0.000000 10.423330
RightHandThumb1 -24.326973 -0.000000 -32.862282
LeftUpLeg -3.215142 6.440866 -4.426567
LeftLeg 1.235087 -0.000000 -0.000000
LeftFoot -20.576279 24.208183 -17.993127
LeftToeBase 9.881709 -0.000000 -0.000000
RightUpLeg -7.634464 3.964792 -1.117679
RightLeg 5.380509 -0.000000 -0.000000
RightFoot -14.482482 -5.230583 5.297405
RightToeBase 2.172887 -0.000000 -0.000000
